<?xml version="1.0" standalone="no"?><!DOCTYPE svg PUBLIC "-//W3C//DTD SVG 1.1//EN" "http://www.w3.org/Graphics/SVG/1.1/DTD/svg11.dtd"><svg xmlns:xlink="http://www.w3.org/1999/xlink" width="1246.99" height="447.49" viewBox="0 0 1246.99 447.49" version="1.1" xmlns="http://www.w3.org/2000/svg"><defs xmlns="http://www.w3.org/1999/xhtml"><style type="text/css"><![CDATA[
.cls-1 { opacity: 0.25; }
.cls-2, .cls-3, .cls-5, .cls-6, .cls-7, .cls-8, .cls-9 { fill: none; }
.cls-2, .cls-3, .cls-8, .cls-9 { stroke: rgb(255, 255, 255); }
.cls-2, .cls-3, .cls-5, .cls-6, .cls-7 { stroke-miterlimit: 10; }
.cls-2, .cls-3 { stroke-width: 13.1px; }
.cls-3 { stroke-dasharray: 1.6, 18.26; }
.cls-4 { fill: url("#New_Gradient_Swatch_1"); }
.cls-5, .cls-6, .cls-7 { stroke-width: 17px; }
.cls-5 { stroke: url("#linear-gradient"); }
.cls-6 { stroke-dasharray: 4.98, 34.84; stroke: url("#linear-gradient-2"); }
.cls-7 { stroke: url("#linear-gradient-3"); }
.cls-8, .cls-9 { stroke-linecap: round; stroke-linejoin: round; stroke-width: 1.64px; }
.cls-9 { stroke-dasharray: 0.02, 17.41; }
.cls-10 { fill: rgb(255, 255, 255); }
.cls-11 { fill: rgb(0, 65, 101); }
.cls-12 { fill: url("#linear-gradient-4"); }
.cls-13 { fill: url("#linear-gradient-5"); }
.cls-14 { fill-opacity: 0.1; fill: url("#radial-gradient"); }]]></style></defs>
  <defs>
    <style>
      .cls-1 {
        opacity: 0.25;
      }

      .cls-2, .cls-3, .cls-5, .cls-6, .cls-7, .cls-8, .cls-9 {
        fill: none;
      }

      .cls-2, .cls-3, .cls-8, .cls-9 {
        stroke: #fff;
      }

      .cls-2, .cls-3, .cls-5, .cls-6, .cls-7 {
        stroke-miterlimit: 10;
      }

      .cls-2, .cls-3 {
        stroke-width: 13.1px;
      }

      .cls-3 {
        stroke-dasharray: 1.6 18.26;
      }

      .cls-4 {
        fill: url(#New_Gradient_Swatch_1);
      }

      .cls-5, .cls-6, .cls-7 {
        stroke-width: 17px;
      }

      .cls-5 {
        stroke: url(#linear-gradient);
      }

      .cls-6 {
        stroke-dasharray: 4.98 34.84;
        stroke: url(#linear-gradient-2);
      }

      .cls-7 {
        stroke: url(#linear-gradient-3);
      }

      .cls-8, .cls-9 {
        stroke-linecap: round;
        stroke-linejoin: round;
        stroke-width: 1.64px;
      }

      .cls-9 {
        stroke-dasharray: 0.02 17.41;
      }

      .cls-10 {
        fill: #fff;
      }

      .cls-11 {
        fill: #004165;
      }

      .cls-12 {
        fill: url(#linear-gradient-4);
      }

      .cls-13 {
        fill: url(#linear-gradient-5);
      }

      .cls-14 {
        fill-opacity: 0.1;
        fill: url(#radial-gradient);
      }
    </style>
    <linearGradient id="New_Gradient_Swatch_1" data-name="New Gradient Swatch 1" x1="283.89" y1="171.15" x2="967.41" y2="171.15" gradientUnits="userSpaceOnUse">
      <stop offset="0" stop-color="#ff2d00"/>
      <stop offset="0.25" stop-color="#ff8700"/>
      <stop offset="0.4" stop-color="#fff"/>
      <stop offset="0.6" stop-color="#fff"/>
      <stop offset="0.75" stop-color="#8bc73f"/>
      <stop offset="1" stop-color="#78be20"/>
    </linearGradient>
    <linearGradient id="linear-gradient" x1="280.42" y1="209.54" x2="971" y2="209.54" xlink:href="#New_Gradient_Swatch_1"/>
    <linearGradient id="linear-gradient-2" x1="280.42" y1="156.78" x2="971" y2="156.78" xlink:href="#New_Gradient_Swatch_1"/>
    <linearGradient id="linear-gradient-3" x1="280.41" y1="209.57" x2="971" y2="209.57" xlink:href="#New_Gradient_Swatch_1"/>
    <linearGradient id="linear-gradient-4" x1="-2343.36" y1="2673.66" x2="-1935.59" y2="2673.66" gradientTransform="translate(1486.57 -798.48) scale(0.54 0.37)" gradientUnits="userSpaceOnUse">
      <stop offset="0" stop-color="#004165"/>
      <stop offset="1" stop-color="#004165" stop-opacity="0"/>
    </linearGradient>
    <linearGradient id="linear-gradient-5" x1="-565.97" y1="3434.05" x2="-158.2" y2="3434.05" gradientTransform="matrix(0.54, 0, 0, -0.37, 1115.44, 1448.08)" xlink:href="#linear-gradient-4"/>
    <radialGradient id="radial-gradient" cx="129.12" cy="241.84" r="416.25" gradientTransform="translate(430.09 93.75) scale(1.5 0.54)" gradientUnits="userSpaceOnUse">
      <stop offset="0" stop-color="#fff"/>
      <stop offset="0.04" stop-color="#fff" stop-opacity="0.92"/>
      <stop offset="0.2" stop-color="#fff" stop-opacity="0.68"/>
      <stop offset="0.35" stop-color="#fff" stop-opacity="0.47"/>
      <stop offset="0.5" stop-color="#fff" stop-opacity="0.3"/>
      <stop offset="0.64" stop-color="#fff" stop-opacity="0.17"/>
      <stop offset="0.77" stop-color="#fff" stop-opacity="0.08"/>
      <stop offset="0.9" stop-color="#fff" stop-opacity="0.02"/>
      <stop offset="1" stop-color="#fff" stop-opacity="0"/>
    </radialGradient>
  </defs>
  <title>Asset 20</title>
  <g id="Layer_2" data-name="Layer 2">
    <g id="Layer_1-2" data-name="Layer 1">
      <g class="cls-1">
        <g>
          <path class="cls-2" d="M430.17,146.87l.77-.26"/>
          <path class="cls-3" d="M448.36,141.09c9.74-2.92,17.2-4.91,17.2-4.91,48.32-11.7,102-19.8,153.92-20.32,56.59-.57,115.58,7.76,167.41,20.32,0,0,10.32,2.17,24.81,6.64"/>
          <path class="cls-2" d="M820.38,145.63l.78.26"/>
        </g>
      </g>
      <path class="cls-4" d="M966.56,219.4q-19.28-11.43-39.3-21.53t-40.64-18.8a669.16,669.16,0,0,0-84.44-29.53,677.66,677.66,0,0,0-87.54-18.12q-22.16-3-44.48-4.57t-44.69-1.43q-22.36.05-44.69,1.47t-44.49,4.51a673.68,673.68,0,0,0-87.56,18,647.07,647.07,0,0,0-84.35,29.77q-20.57,8.84-40.51,19.08t-39.12,21.85a623.47,623.47,0,0,1,79-42.4,641,641,0,0,1,261.73-55.58q22.47.09,44.9,1.58T715,128.48c14.84,2,29.59,4.7,44.24,7.8s29.19,6.73,43.58,10.86A649,649,0,0,1,966.56,219.4Z"/>
      <g>
        <path class="cls-5" d="M966.56,210.2l-2.13-1.3"/>
        <path class="cls-6" d="M934.1,191.76c-55.69-29.33-167.39-77.3-308.45-77.3-157.36,0-275.38,58.48-323.69,85.72"/>
        <path class="cls-7" d="M286.9,208.93l-2.15,1.27"/>
      </g>
      <g>
        <path class="cls-8" d="M823.45,164.43h0"/>
        <path class="cls-9" d="M806.78,159.37a652.16,652.16,0,0,0-369.54,1.93"/>
        <path class="cls-8" d="M428.92,163.88h0"/>
      </g>
      <g>
        <path class="cls-10" d="M269.93,190.84c-2.42-3.81-2.51-6.7-.32-8.09s4.77-.07,7.18,3.74,2.57,6.79.37,8.18S272.36,194.67,269.93,190.84ZM276,187c-2.22-3.51-4.34-4.58-5.94-3.57s-1.53,3.39.69,6.89,4.42,4.66,6,3.66S278.21,190.51,276,187Z"/>
        <path class="cls-10" d="M304.23,177.41l2.81-1.52L301.65,166l-2.13,1.16-.3-.56a8.2,8.2,0,0,0,1.89-2l.67-.37,6.1,11.22,2.6-1.41.4.73-6.25,3.39Z"/>
        <path class="cls-10" d="M309.22,167.85c-2.09-4-1.94-6.89.36-8.09s4.76.33,6.85,4.33,2,7-.31,8.19S311.32,171.87,309.22,167.85Zm6.36-3.32c-1.92-3.68-3.94-4.93-5.62-4.05s-1.81,3.25.11,6.93,4,5,5.67,4.15S317.51,168.21,315.58,164.53Z"/>
        <path class="cls-10" d="M337.06,160.89c2.14-6,3.1-9.23,2.11-11.38a2.74,2.74,0,0,0-4-1.49,4.26,4.26,0,0,0-2.12,3l-.81-.28a5.13,5.13,0,0,1,2.67-3.45,3.54,3.54,0,0,1,5.08,1.84c1.14,2.45,0,5.85-1.73,11.06.66-.35,1.34-.74,2-1.06l4.21-2,.36.77-7.57,3.52Z"/>
        <path class="cls-10" d="M343.36,151.07c-1.84-4.12-1.52-7,.86-8.05s4.73.62,6.57,4.74,1.56,7.09-.81,8.15S345.21,155.21,343.36,151.07Zm6.55-2.93c-1.69-3.79-3.63-5.16-5.36-4.39s-2,3.13-.31,6.92,3.7,5.25,5.41,4.49S351.6,151.94,349.91,148.15Z"/>
        <path class="cls-10" d="M374.65,142.72a4.76,4.76,0,0,0,4.14.26,3,3,0,0,0,1.87-3.95c-.68-1.75-2.41-2.44-5.57-1.21l-.3-.77c2.94-1.14,3.49-2.77,2.89-4.3a2.49,2.49,0,0,0-3.48-1.36,4.39,4.39,0,0,0-2.38,2.52l-.75-.39a5.16,5.16,0,0,1,2.83-2.88c2-.76,3.9-.24,4.66,1.7a3.44,3.44,0,0,1-1.2,4.08l0,.08a3.63,3.63,0,0,1,4.16,2.17,3.84,3.84,0,0,1-2.47,5.1,5.64,5.64,0,0,1-4.72-.22Z"/>
        <path class="cls-10" d="M381.9,135c-1.58-4.23-1.07-7.08,1.37-8s4.68.92,6.26,5.15,1.1,7.18-1.33,8.09S383.48,139.29,381.9,135Zm6.73-2.5c-1.45-3.89-3.3-5.38-5.08-4.72s-2.2,3-.75,6.89,3.36,5.48,5.11,4.82S390.08,136.43,388.63,132.53Z"/>
        <path class="cls-10" d="M418.54,125l-2,.65,1.35,4.12-3.71,1.21-1.35-4.12-7.45,2.43-.89-2.74,2.9-12.4,4.88-1.59,3.28,10,2-.65Zm-6.68-1.17-.91-2.79c-.36-1.11-.79-2.8-1.09-3.9l-.11,0c-.12,1.09-.29,2.22-.46,3.36L408.23,125Z"/>
        <path class="cls-10" d="M418.83,119.86c-1.78-5.89-.22-9.67,3.49-10.79s7.11,1.15,8.89,7,.26,9.8-3.45,10.93S420.62,125.75,418.83,119.86Zm8.59-2.6c-1.44-4.74-2.79-5.49-4.16-5.08s-2.08,1.79-.64,6.53,2.86,5.62,4.2,5.22S428.85,122,427.42,117.26Z"/>
        <path class="cls-10" d="M457.22,114.29l-2,.51,1,3.94-.89.23-1-3.94-6.06,1.57-.14-.54L452,105.78l.82-.21,2.19,8.45,2-.51Zm-3,0-1.25-4.82c-.15-.6-.39-1.68-.5-2.29l-.08,0c-.19.64-.43,1.23-.65,1.93l-2.47,6.45Z"/>
        <path class="cls-10" d="M459,117.43c3.27-5.46,4.84-8.46,4.28-10.75a2.74,2.74,0,0,0-3.59-2.23,4.26,4.26,0,0,0-2.66,2.49l-.74-.43a5.13,5.13,0,0,1,3.29-2.86,3.54,3.54,0,0,1,4.63,2.79c.64,2.63-1.14,5.73-3.85,10.52.71-.22,1.46-.47,2.19-.64l4.51-1.1.2.83-8.1,2Z"/>
        <path class="cls-10" d="M497.81,105.37l-2,.39.78,4-.9.18-.78-4-6.14,1.2-.11-.54,4.48-10,.84-.16,1.67,8.56,2-.39Zm-3-.23-1-4.89c-.12-.61-.29-1.7-.36-2.31l-.08,0c-.22.63-.5,1.2-.76,1.88l-2.85,6.28Z"/>
        <path class="cls-10" d="M507.34,103.64l-2,.36.72,4-.9.16-.72-4-6.16,1.11-.1-.54,4.63-10,.84-.15,1.55,8.59,2-.36Zm-3-.27-.89-4.9c-.11-.61-.26-1.7-.33-2.32l-.08,0c-.23.63-.52,1.2-.79,1.87l-2.94,6.24Z"/>
        <path class="cls-10" d="M538.89,98.91l-2,.27.54,4-.91.12-.54-4-6.2.83-.07-.55,5.08-9.74.84-.11,1.15,8.65,2-.27Zm-3-.41-.66-4.94c-.08-.61-.19-1.71-.22-2.33h-.08c-.26.61-.57,1.17-.87,1.83l-3.23,6.1Z"/>
        <path class="cls-10" d="M546.44,90.13a2.91,2.91,0,0,0-2.42-.85c-2.13.25-3.77,2.16-3.23,7.13A4.61,4.61,0,0,1,544,94.13c2.37-.28,3.93,1,4.26,3.74a4,4,0,0,1-3.2,4.66c-2.71.32-4.69-1.76-5.17-5.86-.67-5.66,1.46-7.91,4.06-8.22a3.66,3.66,0,0,1,3,1Zm.84,7.85c-.23-1.94-1.27-3.28-3.32-3a4.33,4.33,0,0,0-3,2.42c.51,2.83,1.83,4.63,4,4.37C546.53,101.54,547.51,99.9,547.29,98Z"/>
        <path class="cls-10" d="M580.3,94.95l-2,.15.29,4.06-.91.07-.29-4.06-6.24.45,0-.55,5.66-9.42.85-.06.63,8.71,2-.15Zm-3-.6-.36-5c0-.62-.08-1.72-.08-2.34h-.08c-.3.6-.64,1.14-1,1.78l-3.59,5.89Z"/>
        <path class="cls-10" d="M583.78,91.47v-.08a3.82,3.82,0,0,1-2.14-3A3.36,3.36,0,0,1,585,84.85a3.41,3.41,0,0,1,3.88,3.34,4.91,4.91,0,0,1-1.73,3.56v.08c1.21.65,2.48,1.5,2.58,3.33s-1.45,3.65-3.92,3.79-4.41-1.34-4.53-3.49A4.63,4.63,0,0,1,583.78,91.47Zm2,6.69a2.89,2.89,0,0,0,3-3c-.12-2.08-2.2-2.69-4.36-3.39a4.12,4.12,0,0,0-2.2,3.56A3.14,3.14,0,0,0,585.77,98.16Zm2.22-9.9A2.67,2.67,0,0,0,585,85.64a2.5,2.5,0,0,0-2.47,2.68c.11,1.93,2,2.59,3.81,3.19A4.11,4.11,0,0,0,588,88.26Z"/>
        <path class="cls-10" d="M611.11,92.82A5.82,5.82,0,0,0,615,94.56c1.85,0,3-1,3-2.86a2.6,2.6,0,0,0-2.89-2.75,4.28,4.28,0,0,0-2.66,1l-1.9-1.17.38-9.15,10.26-.15.05,3.53-6.64.1-.26,3.39a4.53,4.53,0,0,1,2-.46c3.11,0,5.78,1.68,5.84,5.53.06,4-3,6.37-6.55,6.42a8.59,8.59,0,0,1-6.42-2.44Z"/>
        <path class="cls-10" d="M624.75,88.36c.06-6.15,2.68-9.29,6.56-9.25s6.44,3.22,6.38,9.38-2.68,9.43-6.56,9.4S624.69,94.51,624.75,88.36Zm9,.09c0-5-1-6.08-2.45-6.09s-2.52,1.09-2.57,6,1.05,6.22,2.45,6.23S633.67,93.37,633.72,88.45Z"/>
        <path class="cls-10" d="M658.2,96a4.85,4.85,0,0,0,3.63,1.85,3.46,3.46,0,0,0,3.57-3.48,3.17,3.17,0,0,0-3.13-3.68,4.14,4.14,0,0,0-2.58.78l-.64-.44.82-6.33,6.27.33,0,.83-5.42-.28L660,90.48a4.41,4.41,0,0,1,2.46-.6c2.3.12,4.08,1.53,3.92,4.51a4.32,4.32,0,0,1-4.57,4.3,5.65,5.65,0,0,1-4.18-2.05Z"/>
        <path class="cls-10" d="M667.5,98.15c4.76-4.23,7.16-6.61,7.31-9A2.74,2.74,0,0,0,672.06,86a4.26,4.26,0,0,0-3.28,1.57l-.58-.64a5.13,5.13,0,0,1,4-1.74,3.54,3.54,0,0,1,3.57,4.05c-.18,2.7-2.81,5.13-6.84,8.87.75,0,1.54,0,2.28,0l4.63.31-.06.85-8.33-.55Z"/>
        <path class="cls-10" d="M699.55,99.19a4.85,4.85,0,0,0,3.51,2.07A3.46,3.46,0,0,0,706.84,98a3.17,3.17,0,0,0-2.9-3.86,4.14,4.14,0,0,0-2.62.62l-.61-.48L701.9,88l6.24.71-.09.82-5.39-.61-1,4.84a4.42,4.42,0,0,1,2.49-.45c2.28.26,4,1.78,3.64,4.74a4.32,4.32,0,0,1-4.82,4,5.65,5.65,0,0,1-4-2.3Z"/>
        <path class="cls-10" d="M717.73,99.53l-2-.26-.51,4-.91-.12.51-4-6.21-.79.07-.55,7.41-8.11.84.11-1.1,8.66,2,.25Zm-2.81-1.17.63-4.94c.08-.61.26-1.71.38-2.31h-.08c-.41.53-.85,1-1.31,1.55l-4.68,5.07Z"/>
        <path class="cls-10" d="M740.61,104.85a4.85,4.85,0,0,0,3.38,2.28,3.46,3.46,0,0,0,4-3,3.17,3.17,0,0,0-2.66-4,4.14,4.14,0,0,0-2.65.46l-.58-.51,1.58-6.18,6.18,1.08-.14.82-5.35-.94-1.27,4.77a4.42,4.42,0,0,1,2.52-.29c2.26.4,3.86,2,3.35,5a4.32,4.32,0,0,1-5.06,3.72,5.65,5.65,0,0,1-3.9-2.54Z"/>
        <path class="cls-10" d="M759.12,98.4a2.91,2.91,0,0,0-2-1.54c-2.11-.4-4.25.93-5.22,5.84a4.61,4.61,0,0,1,3.72-1.22c2.34.44,3.45,2.15,2.94,4.85a4,4,0,0,1-4.45,3.49c-2.68-.51-3.94-3.09-3.17-7.15,1.06-5.61,3.78-7.11,6.35-6.62a3.66,3.66,0,0,1,2.58,1.83Zm-1.56,7.75c.36-1.92-.22-3.51-2.25-3.89a4.33,4.33,0,0,0-3.62,1.39c-.37,2.86.36,5,2.53,5.38C755.77,109.31,757.2,108,757.56,106.14Z"/>
        <path class="cls-10" d="M781.27,113a4.86,4.86,0,0,0,3.24,2.48,3.46,3.46,0,0,0,4.14-2.78,3.17,3.17,0,0,0-2.41-4.19,4.14,4.14,0,0,0-2.68.3l-.55-.55,2-6.08,6.11,1.46-.19.81-5.28-1.26L784,107.89a4.42,4.42,0,0,1,2.53-.14c2.24.53,3.73,2.25,3,5.15a4.32,4.32,0,0,1-5.28,3.4,5.65,5.65,0,0,1-3.74-2.77Z"/>
        <path class="cls-10" d="M794.31,110.93l0-.08a3.82,3.82,0,0,1-1.13-3.51,3.36,3.36,0,0,1,4.26-2.34,3.41,3.41,0,0,1,2.7,4.35,4.91,4.91,0,0,1-2.73,2.87l0,.08c1,1,1.91,2.17,1.46,3.95s-2.48,3-4.88,2.43-3.8-2.61-3.27-4.69A4.63,4.63,0,0,1,794.31,110.93Zm-.12,7a2.89,2.89,0,0,0,3.76-1.92c.51-2-1.29-3.23-3.13-4.55a4.11,4.11,0,0,0-3.17,2.73A3.14,3.14,0,0,0,794.19,117.91Zm5.1-8.76a2.67,2.67,0,0,0-2-3.39,2.49,2.49,0,0,0-3.16,1.81c-.48,1.88,1.11,3.07,2.67,4.19A4.11,4.11,0,0,0,799.29,109.14Z"/>
        <path class="cls-10" d="M827.59,113.45a4.15,4.15,0,0,0-2.34-2c-1.91-.57-3.85.35-5.18,4.35a5.09,5.09,0,0,1,4-.8c3,.88,4.66,3.22,3.58,6.88a5.82,5.82,0,0,1-7.49,4.11c-3.36-1-5.81-4.45-4-10.54,1.92-6.47,6.14-8.4,9.8-7.32a7.19,7.19,0,0,1,4.44,3.57ZM824,120.76c.54-1.83-.21-2.8-1.52-3.18a3.28,3.28,0,0,0-3.13.94c-.45,2.84.43,4.05,1.64,4.41S823.42,122.73,824,120.76Z"/>
        <path class="cls-10" d="M830.73,119.24c1.88-5.86,5.31-8.08,9-6.9s5.19,5,3.32,10.84-5.35,8.22-9,7S828.85,125.1,830.73,119.24Zm8.55,2.73c1.51-4.72.82-6.11-.54-6.54s-2.73.29-4.24,5-.83,6.25.49,6.68S837.77,126.67,839.27,122Z"/>
        <path class="cls-10" d="M867.12,127.78l-6.74-2.46.29-.78,7.86,2.87-.19.52c-4.54,2.94-6.47,5.86-8.5,10.78l-1-.35C861,133.27,863.23,130.43,867.12,127.78Z"/>
        <path class="cls-10" d="M867.56,134.25c1.61-4.22,3.87-6,6.3-5.09s2.91,3.78,1.3,8-3.91,6.12-6.34,5.19S865.94,138.48,867.56,134.25Zm6.7,2.56c1.48-3.88,1.08-6.22-.69-6.9s-3.63.8-5.11,4.68-1.1,6.33.65,7S872.78,140.68,874.26,136.81Z"/>
        <path class="cls-10" d="M899.82,146.81l0-.08a3.82,3.82,0,0,1-.54-3.65,3.36,3.36,0,0,1,4.59-1.62,3.41,3.41,0,0,1,1.95,4.73,4.91,4.91,0,0,1-3.16,2.38l0,.08c.78,1.13,1.53,2.46.79,4.14s-2.95,2.59-5.21,1.6-3.32-3.2-2.46-5.17A4.63,4.63,0,0,1,899.82,146.81Zm-1.26,6.86a2.89,2.89,0,0,0,4-1.28c.84-1.91-.74-3.39-2.34-5a4.12,4.12,0,0,0-3.58,2.17A3.14,3.14,0,0,0,898.56,153.67Zm6.47-7.81a2.67,2.67,0,0,0-1.44-3.67,2.5,2.5,0,0,0-3.42,1.27c-.78,1.77.59,3.21,1.95,4.57A4.11,4.11,0,0,0,905,145.86Z"/>
        <path class="cls-10" d="M906.17,150.11c1.87-4.1,4.24-5.76,6.6-4.68s2.66,4,.79,8.06-4.29,5.86-6.65,4.78S904.29,154.24,906.17,150.11Zm6.53,3c1.72-3.78,1.47-6.14-.26-6.92s-3.67.57-5.4,4.34-1.49,6.24.21,7S911,156.86,912.69,153.09Z"/>
        <path class="cls-10" d="M930.08,167.2a2.92,2.92,0,0,0,1.55,2.06c1.91,1,4.34.31,6.65-4.13a4.66,4.66,0,0,1-3.92.1c-2.1-1.08-2.69-3-1.44-5.47a4,4,0,0,1,5.24-2.08c2.41,1.23,2.91,4,1,7.72-2.6,5.08-5.61,5.78-8,4.58a3.66,3.66,0,0,1-2-2.48Zm8.63-2.95c1.16-2.64,1-4.85-.95-5.86-1.38-.71-3.12.08-4,1.8s-.78,3.45,1.07,4.4A4.43,4.43,0,0,0,938.71,164.25Z"/>
        <path class="cls-10" d="M940.41,166.71c2.12-4,4.59-5.5,6.88-4.28s2.42,4.11.3,8.09-4.64,5.59-6.93,4.37S938.28,170.71,940.41,166.71Zm6.33,3.37c1.95-3.67,1.84-6,.16-6.93s-3.7.35-5.65,4-1.87,6.14-.21,7S944.8,173.74,946.75,170.08Z"/>
        <path class="cls-10" d="M962.79,186l2.74,1.64,5.79-9.69-2.08-1.25.33-.55a8.21,8.21,0,0,0,2.69.61l.66.39-6.56,11,2.54,1.52-.43.71-6.11-3.65Z"/>
        <path class="cls-10" d="M973.54,185.45c2.39-3.83,5-5.17,7.16-3.79s2.13,4.26-.25,8.09-5,5.26-7.21,3.88S971.14,189.3,973.54,185.45Zm6.09,3.79c2.2-3.52,2.25-5.9.64-6.9s-3.72.09-5.91,3.61-2.29,6-.7,7S977.43,192.77,979.63,189.24Z"/>
        <path class="cls-10" d="M981.81,190.62c2.46-3.78,5.06-5.07,7.23-3.65s2,4.31-.42,8.09-5.11,5.16-7.29,3.74S979.33,194.42,981.81,190.62Zm6,3.92c2.27-3.48,2.37-5.85.78-6.89s-3.72,0-6,3.49-2.41,6-.84,7S985.55,198,987.82,194.54Z"/>
      </g>
      <ellipse class="cls-11" cx="626.24" cy="255" rx="251.53" ry="95.19"/>
      <rect class="cls-12" x="225.45" y="97.42" width="219.45" height="175.97" transform="translate(-32.93 291.31) rotate(-45)"/>
      <rect class="cls-13" x="810.85" y="96.39" width="219.45" height="175.97" transform="translate(1541.2 888.85) rotate(-142.7)"/>
    </g>
    <g id="highlight">
      <ellipse class="cls-14" cx="623.49" cy="223.74" rx="623.49" ry="223.74"/>
    </g>
  </g>
</svg>