<svg xmlns="http://www.w3.org/2000/svg" width="60" height="60" viewBox="0 0 60 60">
  <title>Asset 7</title>
  <g id="Layer_2" data-name="Layer 2">
    <g id="Layer_1-2" data-name="Layer 1">
      <g>
        <circle cx="30" cy="30" r="30" fill="#72cdf4"/>
        <path d="M39.8269,22.42383l-9.3645,9.36475a.63225.63225,0,0,1-.92456,0l-9.3645-9.36475a.63145.63145,0,0,1,0-.92432L21.178,20.49463a.65483.65483,0,0,1,.46216-.20093.69306.69306,0,0,1,.4624.20093L30,28.39233l7.89771-7.89771a.63225.63225,0,0,1,.92456,0l1.00464,1.00488a.632.632,0,0,1,0,.92432Zm0,7.7168-9.3645,9.36475a.63225.63225,0,0,1-.92456,0l-9.3645-9.36475a.63145.63145,0,0,1,0-.92432L21.178,28.21143a.65483.65483,0,0,1,.46216-.20093.69306.69306,0,0,1,.4624.20093L30,36.10913l7.89771-7.89771a.63225.63225,0,0,1,.92456,0l1.00464,1.00488a.632.632,0,0,1,0,.92432Z" fill="#fff"/>
      </g>
    </g>
  </g>
</svg>
