<svg xmlns="http://www.w3.org/2000/svg" viewBox="0 0 24.4 24.4"><defs><style>.cls-1{fill:#fff;}.cls-2{fill:#064265;}</style></defs><title>Asset 1</title><g id="Layer_2" data-name="Layer 2"><g id="Layer_1-2" data-name="Layer 1"><path class="cls-1" d="M24.4,12.2A12.2,12.2,0,1,1,12.2,0,12.2,12.2,0,0,1,24.4,12.2"/><path class="cls-2" d="M13.4,20.82V23a.39.39,0,0,1-.39.39H11.35A.4.4,0,0,1,11,23V20.82a7.78,7.78,0,0,1-4.51-2.2.41.41,0,0,1,0-.5l1.27-1.66A.4.4,0,0,1,8,16.31a.34.34,0,0,1,.29.11,6.45,6.45,0,0,0,3.92,1.66c1.2,0,2.51-.64,2.51-2,0-1.18-1.45-1.76-3.11-2.42-2.21-.87-5-2-5-5.06C6.62,6.31,8.39,4.45,11,4V1.75a.4.4,0,0,1,.39-.39H13a.39.39,0,0,1,.39.39V3.91a6.66,6.66,0,0,1,3.87,1.68.39.39,0,0,1,.06.47l-1,1.79a.36.36,0,0,1-.28.2A.41.41,0,0,1,15.72,8a5.65,5.65,0,0,0-3.34-1.33c-1.56,0-2.64.77-2.64,1.89,0,1.3,1.5,1.88,3.24,2.56,2.26.87,4.82,1.87,4.82,4.83A5,5,0,0,1,13.4,20.82Z"/></g></g></svg>