<svg xmlns="http://www.w3.org/2000/svg" viewBox="0 0 24.14 22.29"><defs><style>.cls-1{fill:#989898;}</style></defs><title>Asset 1</title><g id="Layer_2" data-name="Layer 2"><g id="Layer_1-2" data-name="Layer 1"><path class="cls-1" d="M20.43,18.11a4.18,4.18,0,0,1-4.18,4.18H4.18A4.18,4.18,0,0,1,0,18.11V6A4.18,4.18,0,0,1,4.18,1.86h3.7A.47.47,0,0,1,8,2.79,9.92,9.92,0,0,0,6,3.66a.6.6,0,0,1-.23.06H4.18A2.33,2.33,0,0,0,1.86,6V18.11a2.33,2.33,0,0,0,2.32,2.32H16.25a2.33,2.33,0,0,0,2.32-2.32V15a.49.49,0,0,1,.26-.42,2.88,2.88,0,0,0,.78-.54.47.47,0,0,1,.81.3ZM18.3,12.73a.87.87,0,0,1-.65.28,1.07,1.07,0,0,1-.36-.07.94.94,0,0,1-.57-.86V9.29H14.4c-3.19,0-5.22.61-6.36,1.9S6.52,14.71,7,18.05a.49.49,0,0,1-.29.49l-.17,0a.48.48,0,0,1-.38-.19C6,18.24,3.71,15,3.71,12.07c0-3.89,1.22-8.36,10.68-8.36h2.32V.93a.94.94,0,0,1,.57-.86A1.07,1.07,0,0,1,17.65,0a.92.92,0,0,1,.65.28l5.57,5.57a.92.92,0,0,1,0,1.31Z"/></g></g></svg>