<svg id="Layer_1" data-name="Layer 1" xmlns="http://www.w3.org/2000/svg" viewBox="0 0 9.28 9.28"><defs><style>.cls-1{fill:#cececd;}</style></defs><title>Artboard 1</title><path class="cls-1" d="M4.64,9.28A4.64,4.64,0,1,1,9.28,4.64,4.64,4.64,0,0,1,4.64,9.28ZM6.49,7.89a.23.23,0,0,0-.23-.23h-.7V3.94a.23.23,0,0,0-.23-.23H3a.23.23,0,0,0-.23.23V5.1A.23.23,0,0,0,3,5.33h.7V7.65H3a.23.23,0,0,0-.23.23V9A.23.23,0,0,0,3,9.28H6.26A.23.23,0,0,0,6.49,9ZM5.57,1.39a.23.23,0,0,0-.23-.23H3.94a.23.23,0,0,0-.23.23V2.55a.23.23,0,0,0,.23.23H5.33a.23.23,0,0,0,.23-.23Z"/></svg>