<svg xmlns="http://www.w3.org/2000/svg" viewBox="0 0 24 24"><defs><style>.cls-1{fill:#fff;}</style></defs><title>Asset 1</title><g id="Layer_2" data-name="Layer 2"><g id="Layer_1-2" data-name="Layer 1"><path class="cls-1" d="M12,24A12,12,0,1,1,24,12,12,12,0,0,1,12,24Zm4-7a.49.49,0,0,0-.5-.5H14v-8a.49.49,0,0,0-.5-.5h-5a.49.49,0,0,0-.5.5V11a.49.49,0,0,0,.5.5H10v5H8.5A.49.49,0,0,0,8,17v2.5a.49.49,0,0,0,.5.5h7a.49.49,0,0,0,.5-.5ZM14,3a.49.49,0,0,0-.5-.5h-3A.49.49,0,0,0,10,3V5.5a.49.49,0,0,0,.5.5h3a.49.49,0,0,0,.5-.5Z"/></g></g></svg>