<svg id="Layer_1" data-name="Layer 1" xmlns="http://www.w3.org/2000/svg" viewBox="0 0 11.83 11.83"><defs><style>.cls-1{fill:#cececd;}</style></defs><title>Artboard 1</title><path class="cls-1" d="M11.21,10.17l-1.07,1.06a2.09,2.09,0,0,1-2.95,0L5.7,9.71a2.07,2.07,0,0,1-.6-1.47,2.12,2.12,0,0,1,.64-1.52L5.1,6.09a2.1,2.1,0,0,1-3,0L.61,4.61a2.08,2.08,0,0,1,0-2.95L1.68.6a2.09,2.09,0,0,1,2.95,0l1.49,1.5a2.07,2.07,0,0,1,.6,1.47A2.12,2.12,0,0,1,6.09,5.1l.64.64a2.1,2.1,0,0,1,3,0l1.51,1.51a2.08,2.08,0,0,1,0,2.95ZM5.14,3.09,3.65,1.59a.7.7,0,0,0-.49-.2.73.73,0,0,0-.49.2L1.59,2.65a.69.69,0,0,0,0,1L3.1,5.13a.7.7,0,0,0,.49.2.68.68,0,0,0,.52-.22c-.24-.24-.52-.44-.52-.81a.7.7,0,0,1,.7-.7c.37,0,.57.28.81.52a.7.7,0,0,0,0-1Zm5.1,5.11L8.73,6.7a.7.7,0,0,0-.49-.2.69.69,0,0,0-.52.23c.24.24.52.44.52.81a.7.7,0,0,1-.7.7c-.37,0-.57-.28-.81-.52a.7.7,0,0,0,0,1l1.49,1.5a.7.7,0,0,0,.49.2.72.72,0,0,0,.49-.19l1.07-1.06a.69.69,0,0,0,0-1Z"/></svg>