<svg xmlns="http://www.w3.org/2000/svg" viewBox="0 0 24.4 24.4"><defs><style>.cls-1{fill:#fff;}.cls-2{fill:#064265;}</style></defs><title>Asset 1</title><g id="Layer_2" data-name="Layer 2"><g id="Layer_1-2" data-name="Layer 1"><path class="cls-1" d="M24.4,12.2A12.2,12.2,0,1,1,12.2,0,12.2,12.2,0,0,1,24.4,12.2"/><path class="cls-2" d="M16.79,14.69l-4.11,4.12a1.11,1.11,0,0,1-.76.31,1.08,1.08,0,0,1-.75-.31l-6-6A2.91,2.91,0,0,1,4.41,11V7.5A1.08,1.08,0,0,1,5.48,6.43H9a3,3,0,0,1,1.83.76l6,6a1.11,1.11,0,0,1,.31.76A1.08,1.08,0,0,1,16.79,14.69ZM7.09,8A1.07,1.07,0,1,0,8.16,9.11,1.07,1.07,0,0,0,7.09,8ZM20,14.69l-4.11,4.12a1.11,1.11,0,0,1-.76.31,1.2,1.2,0,0,1-.94-.49l3.94-3.94a1.08,1.08,0,0,0,.31-.75,1.11,1.11,0,0,0-.31-.76l-6-6a3,3,0,0,0-1.83-.76h1.88A3,3,0,0,1,14,7.19l6,6a1.11,1.11,0,0,1,.31.76A1.08,1.08,0,0,1,20,14.69Z"/></g></g></svg>